<?xml version="1.0" encoding="utf-8"?>
<!-- Generator: Adobe Illustrator 25.2.0, SVG Export Plug-In . SVG Version: 6.00 Build 0)  -->
<svg version="1.1" id="Capa_1" xmlns="http://www.w3.org/2000/svg" xmlns:xlink="http://www.w3.org/1999/xlink" x="0px" y="0px"
	 viewBox="0 0 131.89 62.28" style="enable-background:new 0 0 131.89 62.28;" xml:space="preserve">
<style type="text/css">
	.st0{fill:#FFFFFF;}
	.st1{fill-rule:evenodd;clip-rule:evenodd;fill:#004F91;}
	.st2{fill-rule:evenodd;clip-rule:evenodd;fill:#EE7203;}
</style>
<g>
	<path class="st0" d="M22.59,50.06c2.02,0,3.75-0.74,5.3-1.61v3.38c-1.52,0.83-3.25,1.27-5.48,1.27c-5.27,0-8.34-3.04-8.34-8.28
		c0-4.61,2.45-8.42,7.41-8.42c5.92,0,7.59,4.06,7.59,9.63H18.04C18.23,48.6,20.02,50.06,22.59,50.06z"/>
	<path class="st0" d="M18.04,46.03h11.03c0-5.57-1.67-9.63-7.59-9.63c-4.96,0-7.41,3.81-7.41,8.42c0,5.24,3.07,8.28,8.34,8.28
		c2.23,0,3.96-0.44,5.48-1.27v-3.38c-1.55,0.87-3.28,1.61-5.3,1.61C20.02,50.06,18.23,48.6,18.04,46.03z M21.73,39.43
		c2.32,0,3.25,1.74,3.37,3.75h-7.06C18.23,41.05,19.4,39.43,21.73,39.43z"/>
	<rect x="32.71" y="29.49" class="st0" width="4.15" height="23.23"/>
	<rect x="32.71" y="29.49" class="st0" width="4.15" height="23.23"/>
	<path class="st0" d="M55.3,43.02c0.14,0.94,0.2,1.95,0.2,3.01H44.47c0.19,2.57,1.99,4.03,4.56,4.03c2.01,0,3.75-0.74,5.3-1.61v3.38
		c-1.52,0.83-3.26,1.27-5.49,1.27c-5.26,0-8.33-3.04-8.33-8.28c0-4.61,2.45-8.42,7.4-8.42C52.69,36.4,54.7,39.05,55.3,43.02
		L55.3,43.02z"/>
	<path class="st0" d="M58.34,46.03c0,0.27-0.04,0.54-0.11,0.79c-0.14-0.68-0.2-1.4-0.2-2.15c0-0.57,0.04-1.12,0.13-1.65
		C58.28,43.94,58.34,44.94,58.34,46.03z"/>
	<path class="st0" d="M55.5,46.03c0-1.06-0.06-2.07-0.2-3.01v-0.01c-0.6-3.96-2.61-6.61-7.39-6.61c-4.95,0-7.4,3.81-7.4,8.42
		c0,5.24,3.07,8.28,8.33,8.28c2.23,0,3.97-0.44,5.49-1.27v-3.38c-1.55,0.87-3.29,1.61-5.3,1.61c-2.57,0-4.37-1.46-4.56-4.03H55.5z
		 M44.47,43.18c0.19-2.13,1.37-3.75,3.69-3.75c2.33,0,3.25,1.74,3.38,3.75H44.47z"/>
	<path class="st0" d="M80.78,52.72c0,1.57,1.27,2.84,2.83,2.84h4.15c1.57,0,2.84-1.27,2.84-2.84V51.6c1.98,2.68,5.2,4.33,9.05,4.33
		c3.97,0,7.21-1.65,9.17-4.38v1.17c0,1.57,1.27,2.84,2.84,2.84h4.15c1.56,0,2.83-1.27,2.83-2.84v-5.85c0-2.03,0.16-3.26,0.46-3.67
		h0.08c0.29,0,0.51,0.03,0.62,0.05c0.39,0.19,0.82,0.29,1.24,0.29c0.49,0,0.98-0.13,1.42-0.38c0.88-0.5,1.42-1.44,1.42-2.46v-4.18
		c0-1.26-0.84-2.38-2.06-2.72c-0.81-0.24-1.53-0.24-2.05-0.24c-1.11,0-2.13,0.29-3.02,0.75c-0.41-0.24-0.89-0.37-1.41-0.37h-3.68
		c-1.57,0-2.84,1.26-2.84,2.83v1.27c-1.95-2.79-5.2-4.48-9.17-4.48c-4.26,0-7.76,2.06-9.64,5.34c-0.74-2.17-2.18-3.78-4.13-4.64
		c-1.31-0.06-2.68-0.23-3.89-0.69c-1.3,0.03-2.49,0.28-3.55,0.73c-0.41-0.23-0.89-0.36-1.4-0.36h-3.93c-0.67,0-1.29,0.23-1.78,0.62
		c-0.22-0.15-0.48-0.27-0.75-0.35c-1.5-0.45-2.99-0.65-4.83-0.65c-3.95,0-7.14,1.85-8.94,4.88c-2.01-3.88-5.66-4.88-8.9-4.88
		c-3.55,0-6.42,1.52-8.21,4.11v-8.18c0-1.57-1.27-2.84-2.84-2.84h-4.15c-1.56,0-2.83,1.27-2.83,2.84v8.1
		c-2.07-3.18-5.41-4.03-8.4-4.03c-6.13,0-10.24,4.53-10.24,11.26c0,6.75,4.38,11.11,11.17,11.11c2.63,0,4.87-0.53,6.85-1.62
		c0.3-0.17,0.57-0.39,0.78-0.64c0.39,1.1,1.44,1.89,2.67,1.89h4.15c1.57,0,2.84-1.27,2.84-2.84v-1c1.92,2.67,5.11,4.21,9.14,4.21
		c2.63,0,4.87-0.53,6.85-1.62c0.91-0.5,1.47-1.45,1.47-2.48c0,0,0-0.05,0-0.14c1.84,2.69,4.89,4.24,8.74,4.24
		c2.01,0,3.5-0.19,4.99-0.65c0.2-0.06,0.4-0.15,0.57-0.25c0.46,0.33,1.04,0.53,1.65,0.53h4.15c1.56,0,2.83-1.27,2.83-2.84
		 M22.59,50.06c2.02,0,3.75-0.74,5.3-1.61v3.38c-1.52,0.83-3.25,1.27-5.48,1.27c-5.27,0-8.34-3.04-8.34-8.28
		c0-4.61,2.45-8.42,7.41-8.42c5.92,0,7.59,4.06,7.59,9.63H18.04C18.23,48.6,20.02,50.06,22.59,50.06z M36.86,52.72h-4.15V29.49h4.15
		V52.72z M49.03,50.06c2.01,0,3.75-0.74,5.3-1.61v3.38c-1.52,0.83-3.26,1.27-5.49,1.27c-5.26,0-8.33-3.04-8.33-8.28
		c0-4.61,2.45-8.42,7.4-8.42c4.78,0,6.79,2.65,7.39,6.61v0.01c0.14,0.94,0.2,1.95,0.2,3.01H44.47
		C44.66,48.6,46.46,50.06,49.03,50.06z M65.9,53.1c-4.42,0-6.99-2.55-7.67-6.28c-0.14-0.68-0.2-1.4-0.2-2.15
		c0-0.57,0.04-1.12,0.13-1.65c0.57-3.81,3.21-6.62,7.59-6.62c1.67,0,2.88,0.18,4.02,0.52l-0.37,3.29c-0.74-0.34-1.55-0.59-2.82-0.59
		c-2.57,0-4.21,2.04-4.21,5.05c0,2.94,1.39,5.2,4.31,5.2c1.17,0,2.47-0.43,3.19-0.74l0.18,3.44C68.84,52.94,67.61,53.1,65.9,53.1z
		 M87.76,52.72h-4.15V44.2c0-1.95-0.03-4.58-2.69-4.58c-3.01,0-3.66,3.25-3.66,5.3v7.8h-4.15V36.77h3.93v2.17h0.07
		c1.3-1.83,3.06-2.54,5.23-2.54c3.78,0,5.42,2.66,5.42,6.26V52.72z M99.65,53.1c-5.27,0-8.34-3.66-8.34-8.24
		c0-5.27,3.63-8.46,8.34-8.46c4.74,0,8.36,3.19,8.36,8.46C108.01,49.44,104.95,53.1,99.65,53.1z M121.04,40.7
		c-0.37-0.21-1.11-0.34-1.86-0.34c-3.37,0-3.37,4.22-3.37,6.51v5.85h-4.15V36.77h3.68v3.62h0.06c0.19-1.48,1.89-3.99,4.37-3.99
		c0.41,0,0.84,0,1.27,0.12V40.7z"/>
	<path class="st0" d="M55.3,43.02c0.14,0.94,0.2,1.95,0.2,3.01h-0.24c-0.04-0.44-0.06-0.89-0.06-1.36
		C55.2,44.1,55.23,43.56,55.3,43.02z"/>
	<path class="st0" d="M70.05,52.57c-1.21,0.37-2.44,0.53-4.15,0.53c-4.42,0-6.99-2.55-7.67-6.28c-0.14-0.68-0.2-1.4-0.2-2.15
		c0-0.57,0.04-1.12,0.13-1.65c0.57-3.81,3.21-6.62,7.59-6.62c1.67,0,2.88,0.18,4.02,0.52l-0.37,3.29c-0.74-0.34-1.55-0.59-2.82-0.59
		c-2.57,0-4.21,2.04-4.21,5.05c0,2.94,1.39,5.2,4.31,5.2c1.17,0,2.47-0.43,3.19-0.74L70.05,52.57z"/>
	<path class="st0" d="M70.05,52.57c-1.21,0.37-2.44,0.53-4.15,0.53c-4.42,0-6.99-2.55-7.67-6.28c-0.14-0.68-0.2-1.4-0.2-2.15
		c0-0.57,0.04-1.12,0.13-1.65c0.57-3.81,3.21-6.62,7.59-6.62c1.67,0,2.88,0.18,4.02,0.52l-0.37,3.29c-0.74-0.34-1.55-0.59-2.82-0.59
		c-2.57,0-4.21,2.04-4.21,5.05c0,2.94,1.39,5.2,4.31,5.2c1.17,0,2.47-0.43,3.19-0.74L70.05,52.57z"/>
	<path class="st0" d="M85.88,34.26c-1.31-0.06-2.68-0.23-3.89-0.69c0.11-0.01,0.23-0.01,0.35-0.01
		C83.65,33.56,84.84,33.8,85.88,34.26z"/>
	<path class="st0" d="M87.76,42.66v10.06h-4.15V44.2c0-1.95-0.03-4.58-2.69-4.58c-3.01,0-3.66,3.25-3.66,5.3v7.8h-4.15V36.77h3.93
		v2.17h0.07c1.3-1.83,3.06-2.54,5.23-2.54C86.12,36.4,87.76,39.06,87.76,42.66z"/>
	<path class="st0" d="M87.76,42.66v10.06h-4.15V44.2c0-1.95-0.03-4.58-2.69-4.58c-3.01,0-3.66,3.25-3.66,5.3v7.8h-4.15V36.77h3.93
		v2.17h0.07c1.3-1.83,3.06-2.54,5.23-2.54C86.12,36.4,87.76,39.06,87.76,42.66z"/>
	<path class="st0" d="M99.65,36.4c-4.71,0-8.34,3.19-8.34,8.46c0,4.58,3.07,8.24,8.34,8.24c5.3,0,8.36-3.66,8.36-8.24
		C108.01,39.59,104.39,36.4,99.65,36.4z M99.65,49.87c-3.16,0-4-2.88-4-5.51c0-2.39,1.3-4.74,4-4.74c2.72,0,4.02,2.29,4.02,4.74
		C103.67,47.02,102.84,49.87,99.65,49.87z"/>
	<path class="st0" d="M99.65,36.4c-4.71,0-8.34,3.19-8.34,8.46c0,4.58,3.07,8.24,8.34,8.24c5.3,0,8.36-3.66,8.36-8.24
		C108.01,39.59,104.39,36.4,99.65,36.4z M99.65,49.87c-3.16,0-4-2.88-4-5.51c0-2.39,1.3-4.74,4-4.74c2.72,0,4.02,2.29,4.02,4.74
		C103.67,47.02,102.84,49.87,99.65,49.87z"/>
	<path class="st0" d="M103.67,44.36c0,2.66-0.83,5.51-4.02,5.51c-3.16,0-4-2.88-4-5.51c0-2.39,1.3-4.74,4-4.74
		C102.37,39.62,103.67,41.91,103.67,44.36z"/>
	<path class="st0" d="M121.04,36.52v4.18c-0.37-0.21-1.11-0.34-1.86-0.34c-3.37,0-3.37,4.22-3.37,6.51v5.85h-4.15V36.77h3.68v3.62
		h0.06c0.19-1.48,1.89-3.99,4.37-3.99C120.18,36.4,120.61,36.4,121.04,36.52z"/>
	<path class="st0" d="M121.04,36.52v4.18c-0.37-0.21-1.11-0.34-1.86-0.34c-3.37,0-3.37,4.22-3.37,6.51v5.85h-4.15V36.77h3.68v3.62
		h0.06c0.19-1.48,1.89-3.99,4.37-3.99C120.18,36.4,120.61,36.4,121.04,36.52z"/>
	<path class="st0" d="M124.21,23.38c-0.51,0.35-12.77,8.39-31.05,10.5c-2.38,0.27-4.35,0.41-6.02,0.41c-0.41,0-0.83-0.01-1.26-0.03
		c-1.31-0.06-2.68-0.23-3.89-0.69c-1.1-0.42-2.08-1.07-2.76-2.09c-1.6-2.39-0.6-5.12,0.4-7.57c0.05-0.13,0.1-0.25,0.15-0.37
		c0.32-0.76,0.64-1.54,0.88-2.29c0.02-0.06,0.04-0.11,0.06-0.17c0.37-1.21,1.49-1.99,2.7-1.99c0.16,0,0.33,0.01,0.5,0.05
		c0.05,0,0.09,0.01,0.14,0.02c0.89,0.21,1.78,0.4,2.67,0.59c3.45,0.73,6.98,1.34,10.91,1.89c1.97,0.27,3.99,0.41,6.02,0.41
		c10.21,0,17.67-3.54,17.74-3.58c0.4-0.19,0.82-0.28,1.23-0.28c0.99,0,1.95,0.52,2.47,1.43C125.84,20.92,125.45,22.56,124.21,23.38z
		"/>
	<path class="st0" d="M92.83,31.06c17.82-2.06,29.81-10.04,29.81-10.04s-11.11,5.42-25.4,3.42c-5.75-0.8-10.14-1.67-13.82-2.52
		C81.64,27.64,76.48,32.95,92.83,31.06z"/>
	<path class="st0" d="M9.25,28.88c-1.04,0-2.03-0.57-2.53-1.55c-0.69-1.37-0.17-3.04,1.17-3.77C9.07,22.92,37.06,7.85,63.25,7.85
		c3.45,0,6.76,0.27,9.83,0.8c6.64,1.14,10.61,3.12,12.5,6.21c1.99,3.26,0.9,6.76,0.55,7.91c-0.38,1.21-1.49,1.99-2.71,1.99
		c-0.21,0-0.43-0.02-0.64-0.07c-2.63-0.61-4.85-1.2-7-1.77c-6.86-1.82-12.29-3.26-24.38-3.26c-21.59,0-40.75,8.87-40.94,8.96
		C10.07,28.8,9.66,28.88,9.25,28.88z"/>
	<path class="st0" d="M83.42,21.92c1.29-4.13,0.81-8.48-10.82-10.48C44.87,6.67,9.25,26.05,9.25,26.05s19.62-9.23,42.15-9.23
		C67.56,16.82,72.11,19.3,83.42,21.92z"/>
</g>
<g>
	<path class="st1" d="M17.71,43.3c0.19-2.14,1.36-3.75,3.69-3.75c2.32,0,3.25,1.74,3.38,3.75H17.71z M27.56,48.57
		c-1.55,0.87-3.28,1.61-5.3,1.61c-2.57,0-4.37-1.46-4.55-4.03h11.03c0-5.58-1.67-9.63-7.59-9.63c-4.96,0-7.4,3.81-7.4,8.43
		c0,5.24,3.07,8.27,8.33,8.27c2.23,0,3.97-0.43,5.48-1.27V48.57z"/>
	<rect x="32.38" y="29.61" class="st1" width="4.15" height="23.23"/>
	<path class="st1" d="M44.14,43.3c0.19-2.14,1.36-3.75,3.69-3.75c2.32,0,3.25,1.74,3.38,3.75H44.14z M53.99,48.57
		c-1.55,0.87-3.28,1.61-5.3,1.61c-2.57,0-4.37-1.46-4.55-4.03h11.03c0-5.58-1.67-9.63-7.59-9.63c-4.96,0-7.4,3.81-7.4,8.43
		c0,5.24,3.07,8.27,8.33,8.27c2.23,0,3.97-0.43,5.48-1.27V48.57z"/>
	<path class="st1" d="M69.44,37.05c-1.15-0.34-2.35-0.53-4.03-0.53c-4.99,0-7.71,3.66-7.71,8.27c0,4.86,2.63,8.43,7.87,8.43
		c1.7,0,2.94-0.15,4.15-0.53l-0.19-3.44C68.82,49.56,67.52,50,66.34,50c-2.91,0-4.31-2.26-4.31-5.2c0-3.01,1.64-5.05,4.21-5.05
		c1.27,0,2.07,0.25,2.82,0.59L69.44,37.05z"/>
	<path class="st1" d="M72.78,52.85h4.15v-7.81c0-2.05,0.65-5.3,3.66-5.3c2.66,0,2.7,2.63,2.7,4.58v8.52h4.15V42.78
		c0-3.59-1.64-6.26-5.42-6.26c-2.17,0-3.93,0.71-5.24,2.54h-0.06v-2.17h-3.93V52.85z"/>
	<path class="st1" d="M90.98,44.98c0,4.59,3.07,8.24,8.33,8.24c5.3,0,8.36-3.65,8.36-8.24c0-5.27-3.62-8.46-8.36-8.46
		C94.61,36.52,90.98,39.71,90.98,44.98 M95.32,44.48c0-2.39,1.3-4.74,4-4.74c2.73,0,4.03,2.29,4.03,4.74c0,2.66-0.84,5.52-4.03,5.52
		C96.16,50,95.32,47.11,95.32,44.48"/>
	<path class="st1" d="M111.32,52.85h4.15v-5.85c0-2.29,0-6.51,3.38-6.51c0.74,0,1.49,0.12,1.86,0.34v-4.18
		c-0.43-0.12-0.87-0.12-1.27-0.12c-2.48,0-4.18,2.51-4.37,4h-0.06v-3.62h-3.69V52.85z"/>
	<path class="st2" d="M8.92,26.17c0,0,35.61-19.38,63.35-14.61C100,16.34,64.33,34.44,92.5,31.18
		c17.82-2.06,29.81-10.04,29.81-10.04s-11.11,5.42-25.4,3.42c-23.4-3.27-24.43-7.62-45.84-7.62C28.54,16.94,8.92,26.17,8.92,26.17"
		/>
</g>
</svg>
